# xmcd CD database file
#
# Track frame offsets:
#	150
#	30940
#	58425
#	73250
#	90320
#	122500
#	155782
#	180295
#	197017
#	224310
#	237142
#	248570
#	265107
#
# Disc length: 3778 seconds
#
# Revision: 0
# Processed by: cddbd v1.5PL3 Copyright (c) Steve Scherf et al.
# Submitted via: CDex 1.51
#
DISCID=ac0ec00d
DTITLE=Kotaro Tsukahara Trio Plus 4 - Ko-Ko
DYEAR=2002
DGENRE=Jazz
TTITLE0=Tiger Rag
TTITLE1=S.K.J.
TTITLE2=Blue Moon
TTITLE3=Flamingo
TTITLE4=Ko-Ko
TTITLE5=Come Sunday
TTITLE6=East Of The Sun
TTITLE7=Angel Eyes
TTITLE8=Easy Walker
TTITLE9=The Shadow Of Your Smile
TTITLE10=Monkey Express
TTITLE11=I Didn't Know What Time It Was
TTITLE12=Two Bass Hits
EXTD=YEAR: 2002
EXTT0=
EXTT1=
EXTT2=
EXTT3=
EXTT4=
EXTT5=
EXTT6=
EXTT7=
EXTT8=
EXTT9=
EXTT10=
EXTT11=
EXTT12=
PLAYORDER=
